<svg
              xmlns="http://www.w3.org/2000/svg"
              viewBox="0 0 240 180"
              fill="#F2E8CF"
              stroke="#ae696f"
              stroke-width="4"
                width="30"
              height="30"
            >
              <!-- Left curly brace -->
              <path
                d="M40 20 Q20 20 20 40 V70 Q20 90 10 90 Q20 90 20 110 V140 Q20 160 40 160"
              />

              <!-- Right curly brace -->
              <path
                d="M200 20 Q220 20 220 40 V70 Q220 90 230 90 Q220 90 220 110 V140 Q220 160 200 160"
              />

              <!-- Camera body -->
              <rect x="50" y="40" width="140" height="100" rx="10" />

              <!-- Camera top part -->
              <path d="M80 40 V20 H160 V40" />

              <!-- Lens -->
              <circle cx="120" cy="90" r="35" />

              <!-- Viewfinder -->
              <rect x="100" y="20" width="40" height="20" rx="5" />

              <!-- Shutter button -->
              <circle cx="175" cy="55" r="8" />

              <!-- Flash -->
              <rect x="65" y="25" width="20" height="10" rx="2" />
            </svg>